<?xml version="1.0" encoding="UTF-8"?><!DOCTYPE svg PUBLIC "-//W3C//DTD SVG 1.1//EN" "http://www.w3.org/Graphics/SVG/1.1/DTD/svg11.dtd"><svg xmlns="http://www.w3.org/2000/svg" xmlns:xlink="http://www.w3.org/1999/xlink"><defs>
		<symbol id="trash" viewBox="0 0 16 16">
			<path strokeLinecap="round" strokeLinejoin="round" d="M2 4h12M5.333 4V2.667a1.333 1.333 0 011.334-1.334h2.666a1.333 1.333 0 011.334 1.334V4m2 0v9.333a1.334 1.334 0 01-1.334 1.334H4.667a1.334 1.334 0 01-1.334-1.334V4h9.334zM6.667 7.333v4M9.333 7.333v4"/>
		</symbol>

		<symbol id="meters" viewBox="0 0 16 16">
			<path d="M13.9337 1.53331H5.45692C5.20262 1.53331 5.03308 1.70285 5.03308 1.95715V10.4339C5.03308 10.6882 5.20262 10.8578 5.45692 10.8578H13.9337C14.188 10.8578 14.3575 10.6882 14.3575 10.4339V1.95715C14.3575 1.70285 14.188 1.53331 13.9337 1.53331Z"/>
			<path d="M2.6004 1.53331V11.9809"/>
			<path d="M1.64233 11.1672L2.60445 12.1293L3.56232 11.1714"/>
			<path d="M1.64233 2.49543L2.60445 1.53332L3.56232 2.49119"/>
			<path d="M14.3575 13.2906H3.90991"/>
			<path d="M4.72371 12.3285L3.7616 13.2906L4.71947 14.2485"/>
			<path d="M13.3955 12.3285L14.3576 13.2906L13.3997 14.2485"/>
		</symbol>

		<symbol id="bathrooms" viewBox="0 0 16 16">
			<path d="M12.718 8.973V3.472a1.472 1.472 0 1 0-2.943 0v.537M9.775 5.594v.34M9.775 7.406v.34"/>
			<path d="M5.35 12.605c-2.336-.39-3.044-2.496-3.096-3.602h11.492c-.052 1.106-.76 3.211-3.096 3.602m-5.3 0a4.8 4.8 0 0 0 .792.064h3.716a4.8 4.8 0 0 0 .792-.064m-5.3 0c-.368.059-1.102.408-1.102 1.34m6.402-1.34c.368.063 1.102.418 1.102 1.34"/>
		</symbol>

		<symbol id="room" viewBox="0 0 16 16">
			<path d="M2.167 7.23V4.122C2.167 3.503 2.669 3 3.29 3h9.348c.62 0 1.123.503 1.123 1.123v3.106M1 12.698V8.425c0-.62.503-1.123 1.123-1.123h11.754c.62 0 1.123.503 1.123 1.123v4.273M1 9.745h14M1 11.531h14"/>
			<path d="M3.906 5.284a.561.561 0 0 1 .552-.461h2.106c.31 0 .561.251.561.561v1.284c0 .31-.251.561-.561.561h-2.34a.561.561 0 0 1-.551-.662l.233-1.283ZM12.094 5.284a.561.561 0 0 0-.552-.461H9.436a.561.561 0 0 0-.56.561v1.284c0 .31.25.561.56.561h2.34c.35 0 .614-.317.552-.662l-.234-1.283Z"/>
		</symbol>

		<symbol id="mappin" viewBox="0 0 16 16">
			<path d="M8 8.5a2 2 0 1 0 0-4 2 2 0 0 0 0 4Z"/>
			<path d="M13 6.5c0 4.5-5 8-5 8s-5-3.5-5-8a5 5 0 1 1 10 0Z"/>
		</symbol>

		<symbol id="virtual-tour" viewBox="0 0 16 16">
			<path d="M7.875 5.652 3.88 3.826 7.875 2l3.995 1.826-3.995 1.826ZM3.88 3.826v4.696l3.995 2.087V5.652"/>
			<path d="M11.87 3.826v4.696l-3.995 2.087"/>
			<path d="M7.875 12.957c-3.383 0-6.125-1.519-6.125-3.392 0-1.028.826-1.949 2.13-2.57m6.292 5.715a8.131 8.131 0 0 0 1.617-.536c1.35-.622 2.211-1.56 2.211-2.609 0-1.028-.826-1.949-2.13-2.57"/>
			<path d="m7.076 11.913 1.065 1.043L7.076 14"/>
		</symbol>

		<symbol id="instagram" viewBox="0 0 16 16">
			<path d="M8 10.5a2.5 2.5 0 1 0 0-5 2.5 2.5 0 0 0 0 5Z"/>
			<path d="M10.75 2.25h-5.5a3 3 0 0 0-3 3v5.5a3 3 0 0 0 3 3h5.5a3 3 0 0 0 3-3v-5.5a3 3 0 0 0-3-3Z"/>
			<path d="M11.25 5.5a.75.75 0 1 0 0-1.5.75.75 0 0 0 0 1.5Z"/>
		</symbol>

		<symbol id="linkedin" viewBox="0 0 16 16">
			<path d="M13.25 2.25H2.75a.5.5 0 0 0-.5.5v10.5a.5.5 0 0 0 .5.5h10.5a.5.5 0 0 0 .5-.5V2.75a.5.5 0 0 0-.5-.5ZM7.5 7v4M5.5 7v4"/>
			<path d="M7.5 8.75a1.75 1.75 0 1 1 3.5 0V11"/>
			<path d="M5.5 5.75a.75.75 0 1 0 0-1.5.75.75 0 0 0 0 1.5Z"/>
		</symbol>
		<symbol id="twitter" viewBox="0 0 16 16">
			<path d="M8 5.5C8 4.125 9.156 2.981 10.531 3a2.5 2.5 0 0 1 2.263 1.5H15l-2.019 2.019A7.994 7.994 0 0 1 5 14c-2 0-2.5-.75-2.5-.75s2-.75 3-2.25c0 0-4-2-3-7.5 0 0 2.5 2.5 5.5 3v-1Z"/>
		</symbol>
		<symbol id="whatsapp" viewBox="0 0 16 16">
			<path d="M2.838 11.063a5.994 5.994 0 1 1 2.1 2.1l-2.075.587a.493.493 0 0 1-.613-.613l.588-2.075Z"/>
			<path d="M9.506 11.5A4.993 4.993 0 0 1 4.5 6.494 1.75 1.75 0 0 1 6.25 4.75v0a.425.425 0 0 1 .375.219l.731 1.275a.506.506 0 0 1-.006.506l-.587.981a3 3 0 0 0 1.506 1.507l.981-.588a.506.506 0 0 1 .506-.006l1.275.731a.425.425 0 0 1 .219.375 1.756 1.756 0 0 1-1.744 1.75v0Z"/>
		</symbol>
		<symbol id="youtube" viewBox="0 0 16 16">
			<path d="M10 8 7 6v4l3-2Z"/>
			<path d="M1.5 8c0 1.863.194 2.95.337 3.512a1.006 1.006 0 0 0 .6.682c2.094.8 5.563.781 5.563.781s3.469.019 5.563-.781a1.006 1.006 0 0 0 .6-.682c.143-.562.337-1.65.337-3.512s-.194-2.95-.338-3.513a1.006 1.006 0 0 0-.6-.68C11.47 3.006 8 3.024 8 3.024s-3.469-.019-5.563.781a1.006 1.006 0 0 0-.6.681C1.694 5.05 1.5 6.137 1.5 8Z"/>
		</symbol>
		<symbol id="facebook" viewBox="0 0 16 16">
			<path d="M8 14A6 6 0 1 0 8 2a6 6 0 0 0 0 12Z"/>
			<path d="M10.5 5.5h-1A1.494 1.494 0 0 0 8 7v7M6 9h4"/>
		</symbol>

		<symbol id="check-circle" viewBox="0 0 16 16">
			<path d="M10.75 6.5 7.081 10 5.25 8.25"/>
			<path d="M8 14A6 6 0 1 0 8 2a6 6 0 0 0 0 12Z"/>
		</symbol>
		<symbol id="warning" viewBox="0 0 16 16">
			<path d="M7.134 2.987a1 1 0 0 1 1.732 0l5.196 9a1 1 0 0 1-.866 1.5H2.804a1 1 0 0 1-.866-1.5l5.196-9Z"/>
			<path d="M8.09 11.717a.535.535 0 1 0 0-1.07.535.535 0 0 0 0 1.07Z"/>
			<path d="M8.09 6.662v2.855"/>
		</symbol>

		<symbol id="help" viewBox="0 0 16 16">
			<circle cx="7.99487" cy="7.9949" r="6"/>
			<path d="M7.99939 8.05978C8.96589 8.05978 9.74939 7.27628 9.74939 6.30978C9.74939 5.34329 8.96589 4.55978 7.99939 4.55978C7.03289 4.55978 6.24939 5.34329 6.24939 6.30978"/>
			<path d="M8.00427 8.06976V8.23501V8.65096"/>
			<path d="M8.00427 11.443C8.35672 11.443 8.64244 11.1623 8.64244 10.8162C8.64244 10.47 8.35672 10.1894 8.00427 10.1894C7.65181 10.1894 7.36609 10.47 7.36609 10.8162C7.36609 11.1623 7.65181 11.443 8.00427 11.443Z"/>
		</symbol>
		<symbol id="user-circle" viewBox="0 0 16 16">
			<path d="M14 7.9949C14 11.3086 11.3137 13.9949 8 13.9949C6.44881 13.9949 5.0351 13.4063 3.97007 12.4401C2.75996 11.3424 2 9.75742 2 7.9949C2 4.6812 4.68629 1.9949 8 1.9949C11.3137 1.9949 14 4.6812 14 7.9949Z"/>
			<path d="M11.9292 12.5374C11.2206 11.0376 9.69425 10 7.92552 10C6.19664 10 4.69931 10.9914 3.97101 12.4367"/>
			<circle cx="8" cy="7.5" r="2.5"/>
		</symbol>
		<symbol id="chevron" viewBox="0 0 16 16">
			<path d="M13 6L8 11L3 6"/>
		</symbol>
		<symbol id="x-burger" viewBox="0 0 16 16">
			<path d="M2.62805 2.62802L13.2947 13.2947M2.62805 13.2947L13.2947 2.62802"/>
		</symbol>
		<symbol id="burger" viewBox="0 0 16 16">
			<path d="M2.73682 2.60526H13.421"/>
			<path d="M2.73682 7.94739H13.421"/>
			<path d="M2.73682 13.2895H13.421"/>
		</symbol>
		
		<symbol id="XXX" viewBox="0 0 16 16">XXXXXXX</symbol>
	</defs><symbol id="Icon.stories"/><symbol id="Icon" viewBox="{`0">
			<use xlinkHref="{`${Icons}#${name}`}" width="{_size}" height="{_size}" strokeWidth="{_strokeWidth}"/>
		</symbol><symbol id="iProps"/><symbol id="icons">
	
</symbol></svg>